<svg width="1052" height="124" viewBox="0 0 1052 124" fill="none" xmlns="http://www.w3.org/2000/svg">
<path d="M783.486 1.46544H809.871V123.266H783.486V1.46544Z" fill="#343434"/>
<path d="M822.099 93.6213L845.266 84.5991C847.84 89.325 856.078 98.7769 868.434 98.7769C880.79 98.7769 886.024 91.5835 887.097 87.9868V85.888C887.097 82.6657 882.077 75.9635 864.573 72.3546C851.916 70.4212 826.604 60.3679 826.604 35.6211C826.604 10.8744 849.342 2.53952 860.711 1.46544C871.652 -0.253085 896.364 1.85211 907.69 24.0211L885.166 34.3325C883.664 30.4658 877.315 22.9902 863.929 24.0213C850.543 25.0525 851.058 35.6214 851.058 36.2658C851.058 36.9103 850.415 45.2881 883.879 52.377C893.103 54.9546 911.551 65.0077 911.551 84.5991C911.551 104.19 898.68 115.533 892.245 118.755C888.813 120.259 879.245 123.266 868.434 123.266C854.919 123.266 831.108 118.11 822.099 93.6213Z" fill="#343434"/>
<path d="M926.996 1.46544H953.382V123.266H926.996V1.46544Z" fill="#343434"/>
<path d="M966.252 1.46544H1051.2V27.888H1020.31V123.266H995.212V27.888H966.252V1.46544Z" fill="#343434"/>
<path d="M701.113 123.266H732.646L771.259 1.46544H745.517L716.558 90.3994L688.885 1.46544H662.5L701.113 123.266Z" fill="#343434"/>
<path d="M106.541 1.46544H178.618V25.9547H130.996V48.5103H172.826V72.3546H130.996V96.8438H178.618V123.266H106.541V1.46544Z" fill="#343434"/>
<path d="M1 93.6213L24.1676 84.599C26.7417 89.325 34.9791 98.7769 47.3351 98.7769C59.6911 98.7769 64.9253 91.5835 65.9979 87.9868V85.8879C65.9979 82.6657 60.9782 75.9635 43.4739 72.3546C30.8175 70.4212 5.5048 60.3679 5.5048 35.6211C5.5048 10.8744 28.2433 2.53952 39.6126 1.46544C50.5528 -0.253084 75.2649 1.8521 86.5912 24.0211L64.0672 34.3325C62.5656 30.4658 56.216 22.9902 42.8303 24.0213C29.4446 25.0525 29.9594 35.6214 29.9594 36.2658C29.9594 36.9103 29.3159 45.2881 62.7802 52.377C72.0043 54.9546 90.4525 65.0076 90.4525 84.599C90.4525 104.19 77.5816 115.533 71.1462 118.755C67.714 120.259 58.1466 123.266 47.3351 123.266C33.8207 123.266 10.0096 118.11 1 93.6213Z" fill="#343434"/>
<path d="M279.654 80.7326L302.178 92.3327C296.327 102.644 277.435 123.266 248.675 123.266C212.726 123.266 190.202 93.6216 190.202 61.3992C190.202 29.1769 211.904 1.46544 248.675 1.46544C278.092 1.46544 296.601 20.799 302.178 30.4658L279.654 41.4214C277.021 36.2658 267.138 25.9547 248.675 25.9547C225.597 25.9547 215.3 40.777 215.3 61.3992C215.3 82.0215 226.062 98.7771 248.675 98.7771C266.766 98.7771 276.866 86.7475 279.654 80.7326Z" fill="#343434"/>
<path d="M315.693 1.46544H340.147V82.666C340.362 87.8216 344.91 98.1327 361.384 98.1327C377.859 98.1327 383.265 87.8216 383.908 82.666V1.46544H408.363V82.666C407.29 96.1994 396.393 123.266 361.384 123.266C326.375 123.266 316.336 96.1994 315.693 82.666V1.46544Z" fill="#343434"/>
<path fill-rule="evenodd" clip-rule="evenodd" d="M427.669 123.266V1.46544H475.291C488.162 1.46535 513.904 9.19857 513.904 40.1322C513.904 71.0659 499.317 78.3697 492.023 78.1549L519.696 123.266H490.736L464.351 80.7326H452.767V123.266H427.669ZM452.767 25.3102V55.5992H479.153C482.799 55.5992 490.093 52.5058 490.093 40.1322C490.093 27.7586 480.225 25.0952 475.291 25.3102H452.767Z" fill="#343434"/>
<path d="M531.923 1.46571H604V25.955H556.378V48.5106H598.208V72.3548H556.378V96.8441H604V123.266H531.923V1.46571Z" fill="#343434"/>
<path d="M732.646 123.266H701.113L662.5 1.46544H688.885L716.558 90.3994L745.517 1.46544H771.259M732.646 123.266C747.725 75.7 756.18 49.0316 771.259 1.46544M732.646 123.266L771.259 1.46544M1 93.6213L24.1676 84.599C26.7417 89.325 34.9791 98.7769 47.3351 98.7769C59.6911 98.7769 64.9253 91.5835 65.9979 87.9868V85.8879C65.9979 82.6657 60.9782 75.9635 43.4739 72.3546C30.8175 70.4212 5.5048 60.3679 5.5048 35.6211C5.5048 10.8744 28.2433 2.53952 39.6126 1.46544C50.5528 -0.253084 75.2649 1.8521 86.5912 24.0211L64.0672 34.3325C62.5656 30.4658 56.216 22.9902 42.8303 24.0213C29.4446 25.0525 29.9594 35.6214 29.9594 36.2658C29.9594 36.9103 29.3159 45.2881 62.7802 52.377C72.0043 54.9546 90.4525 65.0076 90.4525 84.599C90.4525 104.19 77.5816 115.533 71.1462 118.755C67.714 120.259 58.1466 123.266 47.3351 123.266C33.8207 123.266 10.0096 118.11 1 93.6213ZM106.541 1.46544H178.618V25.9547H130.996V48.5103H172.826V72.3546H130.996V96.8438H178.618V123.266H106.541V1.46544ZM279.654 80.7326L302.178 92.3327C296.327 102.644 277.435 123.266 248.675 123.266C212.726 123.266 190.202 93.6216 190.202 61.3992C190.202 29.1769 211.904 1.46544 248.675 1.46544C278.092 1.46544 296.601 20.799 302.178 30.4658L279.654 41.4214C277.021 36.2658 267.138 25.9547 248.675 25.9547C225.597 25.9547 215.3 40.777 215.3 61.3992C215.3 82.0215 226.062 98.7771 248.675 98.7771C266.766 98.7771 276.866 86.7475 279.654 80.7326ZM315.693 1.46544H340.147V82.666C340.362 87.8216 344.91 98.1327 361.384 98.1327C377.859 98.1327 383.265 87.8216 383.908 82.666V1.46544H408.363V82.666C407.29 96.1994 396.393 123.266 361.384 123.266C326.375 123.266 316.336 96.1994 315.693 82.666V1.46544ZM427.669 123.266V1.46544H475.291C488.162 1.46535 513.904 9.19857 513.904 40.1322C513.904 71.0659 499.317 78.3697 492.023 78.1549L519.696 123.266H490.736L464.351 80.7326H452.767V123.266H427.669ZM452.767 55.5992V25.3102H475.291C480.225 25.0952 490.093 27.7586 490.093 40.1322C490.093 52.5058 482.799 55.5992 479.153 55.5992H452.767ZM822.099 93.6213L845.266 84.5991C847.84 89.325 856.078 98.7769 868.434 98.7769C880.79 98.7769 886.024 91.5835 887.097 87.9868V85.888C887.097 82.6657 882.077 75.9635 864.573 72.3546C851.916 70.4212 826.604 60.3679 826.604 35.6211C826.604 10.8744 849.342 2.53952 860.711 1.46544C871.652 -0.253085 896.364 1.85211 907.69 24.0211L885.166 34.3325C883.664 30.4658 877.315 22.9902 863.929 24.0213C850.543 25.0525 851.058 35.6214 851.058 36.2658C851.058 36.9103 850.415 45.2881 883.879 52.377C893.103 54.9546 911.551 65.0077 911.551 84.5991C911.551 104.19 898.68 115.533 892.245 118.755C888.813 120.259 879.245 123.266 868.434 123.266C854.919 123.266 831.108 118.11 822.099 93.6213ZM926.996 1.46544H953.382V123.266H926.996V1.46544ZM966.252 1.46544H1051.2V27.888H1020.31V123.266H995.212V27.888H966.252V1.46544ZM783.486 1.46544H809.871V123.266H783.486V1.46544ZM531.923 1.46571H604V25.955H556.378V48.5106H598.208V72.3548H556.378V96.8441H604V123.266H531.923V1.46571Z" stroke="#343434"/>
</svg>
