<svg width="975" height="335" viewBox="0 0 975 335" fill="none" xmlns="http://www.w3.org/2000/svg">
<path d="M491.986 181.199H518.371V303H491.986V181.199Z" fill="#343434"/>
<path d="M530.599 273.355L553.766 264.333C556.34 269.059 564.578 278.511 576.934 278.511C589.29 278.511 594.524 271.317 595.597 267.721V265.622C595.597 262.4 590.577 255.697 573.073 252.088C560.416 250.155 535.104 240.102 535.104 215.355C535.104 190.608 557.842 182.273 569.211 181.199C580.152 179.481 604.864 181.586 616.19 203.755L593.666 214.066C592.164 210.2 585.815 202.724 572.429 203.755C559.043 204.786 559.558 215.355 559.558 216C559.558 216.644 558.915 225.022 592.379 232.111C601.603 234.688 620.051 244.742 620.051 264.333C620.051 283.924 607.18 295.267 600.745 298.489C597.313 299.993 587.745 303 576.934 303C563.419 303 539.608 297.844 530.599 273.355Z" fill="#343434"/>
<path d="M635.496 181.199H661.882V303H635.496V181.199Z" fill="#343434"/>
<path d="M674.752 181.199H759.7V207.622H728.81V303H703.712V207.622H674.752V181.199Z" fill="#343434"/>
<path d="M409.613 303H441.146L479.759 181.199H454.017L425.058 270.133L397.385 181.199H371L409.613 303Z" fill="#343434"/>
<path d="M476.541 32.4654H548.618V56.9547H500.996V79.5103H542.826V103.355H500.996V127.844H548.618V154.266H476.541V32.4654Z" fill="#343434"/>
<path d="M371 124.621L394.168 115.599C396.742 120.325 404.979 129.777 417.335 129.777C429.691 129.777 434.925 122.583 435.998 118.987V116.888C435.998 113.666 430.978 106.963 413.474 103.355C400.818 101.421 375.505 91.3679 375.505 66.6211C375.505 41.8744 398.243 33.5395 409.613 32.4654C420.553 30.7469 445.265 32.8521 456.591 55.0211L434.067 65.3325C432.566 61.4658 426.216 53.9902 412.83 55.0213C399.445 56.0525 399.959 66.6214 399.959 67.2658C399.959 67.9103 399.316 76.2881 432.78 83.377C442.004 85.9546 460.453 96.0077 460.453 115.599C460.453 135.19 447.582 146.533 441.146 149.755C437.714 151.259 428.147 154.266 417.335 154.266C403.821 154.266 380.01 149.11 371 124.621Z" fill="#343434"/>
<path d="M649.654 111.733L672.178 123.333C666.327 133.644 647.435 154.266 618.675 154.266C582.726 154.266 560.202 124.622 560.202 92.3993C560.202 60.1769 581.904 32.4654 618.675 32.4654C648.092 32.4654 666.601 51.799 672.178 61.4658L649.654 72.4214C647.021 67.2658 637.138 56.9547 618.675 56.9547C595.597 56.9547 585.3 71.777 585.3 92.3993C585.3 113.022 596.062 129.777 618.675 129.777C636.766 129.777 646.866 117.747 649.654 111.733Z" fill="#343434"/>
<path d="M685.693 32.4654H710.147V113.666C710.362 118.822 714.91 129.133 731.384 129.133C747.859 129.133 753.265 118.822 753.908 113.666V32.4654H778.363V113.666C777.29 127.199 766.393 154.266 731.384 154.266C696.375 154.266 686.336 127.199 685.693 113.666V32.4654Z" fill="#343434"/>
<path fill-rule="evenodd" clip-rule="evenodd" d="M797.669 154.266V32.4654H845.291C858.162 32.4653 883.904 40.1986 883.904 71.1322C883.904 102.066 869.317 109.37 862.023 109.155L889.696 154.266H860.736L834.351 111.733H822.767V154.266H797.669ZM822.767 56.3102V86.5992H849.153C852.799 86.5992 860.093 83.5058 860.093 71.1322C860.093 58.7586 850.225 56.0952 845.291 56.3102H822.767Z" fill="#343434"/>
<path d="M901.923 32.4657H974V56.955H926.378V79.5106H968.208V103.355H926.378V127.844H974V154.266H901.923V32.4657Z" fill="#343434"/>
<path d="M441.146 303H409.613L371 181.199H397.385L425.058 270.133L454.017 181.199H479.759M441.146 303C456.225 255.434 464.68 228.765 479.759 181.199M441.146 303L479.759 181.199M371 124.621L394.168 115.599C396.742 120.325 404.979 129.777 417.335 129.777C429.691 129.777 434.925 122.583 435.998 118.987V116.888C435.998 113.666 430.978 106.963 413.474 103.355C400.818 101.421 375.505 91.3679 375.505 66.6211C375.505 41.8744 398.243 33.5395 409.613 32.4654C420.553 30.7469 445.265 32.8521 456.591 55.0211L434.067 65.3325C432.566 61.4658 426.216 53.9902 412.83 55.0213C399.445 56.0525 399.959 66.6214 399.959 67.2658C399.959 67.9103 399.316 76.2881 432.78 83.377C442.004 85.9546 460.453 96.0077 460.453 115.599C460.453 135.19 447.582 146.533 441.146 149.755C437.714 151.259 428.147 154.266 417.335 154.266C403.821 154.266 380.01 149.11 371 124.621ZM476.541 32.4654H548.618V56.9547H500.996V79.5103H542.826V103.355H500.996V127.844H548.618V154.266H476.541V32.4654ZM649.654 111.733L672.178 123.333C666.327 133.644 647.435 154.266 618.675 154.266C582.726 154.266 560.202 124.622 560.202 92.3993C560.202 60.1769 581.904 32.4654 618.675 32.4654C648.092 32.4654 666.601 51.799 672.178 61.4658L649.654 72.4214C647.021 67.2658 637.138 56.9547 618.675 56.9547C595.597 56.9547 585.3 71.777 585.3 92.3993C585.3 113.022 596.062 129.777 618.675 129.777C636.766 129.777 646.866 117.747 649.654 111.733ZM685.693 32.4654H710.147V113.666C710.362 118.822 714.91 129.133 731.384 129.133C747.859 129.133 753.265 118.822 753.908 113.666V32.4654H778.363V113.666C777.29 127.199 766.393 154.266 731.384 154.266C696.375 154.266 686.336 127.199 685.693 113.666V32.4654ZM797.669 154.266V32.4654H845.291C858.162 32.4653 883.904 40.1986 883.904 71.1322C883.904 102.066 869.317 109.37 862.023 109.155L889.696 154.266H860.736L834.351 111.733H822.767V154.266H797.669ZM822.767 86.5992V56.3102H845.291C850.225 56.0952 860.093 58.7586 860.093 71.1322C860.093 83.5058 852.799 86.5992 849.153 86.5992H822.767ZM530.599 273.355L553.766 264.333C556.34 269.059 564.578 278.511 576.934 278.511C589.29 278.511 594.524 271.317 595.597 267.721V265.622C595.597 262.4 590.577 255.697 573.073 252.088C560.416 250.155 535.104 240.102 535.104 215.355C535.104 190.608 557.842 182.273 569.211 181.199C580.152 179.481 604.864 181.586 616.19 203.755L593.666 214.066C592.164 210.2 585.815 202.724 572.429 203.755C559.043 204.786 559.558 215.355 559.558 216C559.558 216.644 558.915 225.022 592.379 232.111C601.603 234.688 620.051 244.742 620.051 264.333C620.051 283.924 607.18 295.267 600.745 298.489C597.313 299.993 587.745 303 576.934 303C563.419 303 539.608 297.844 530.599 273.355ZM635.496 181.199H661.882V303H635.496V181.199ZM674.752 181.199H759.7V207.622H728.81V303H703.712V207.622H674.752V181.199ZM491.986 181.199H518.371V303H491.986V181.199ZM901.923 32.4657H974V56.955H926.378V79.5106H968.208V103.355H926.378V127.844H974V154.266H901.923V32.4657Z" stroke="#343434"/>
<path d="M179 4.02548V23.0255C179 24.5255 179.9 27.5255 183.5 27.5255C188 27.5255 280.5 36.0258 301 151.526C301.167 152.584 302.5 154.701 306.5 154.701H322.5C324.333 154.643 328 153.926 328 151.526C328 148.526 318.5 17.0256 183.5 0.0256305C182 -0.141128 179 0.425368 179 4.02548Z" fill="#343434"/>
<path d="M179 330.701V311.701C179 310.201 179.9 307.201 183.5 307.201C188 307.201 280.5 298.701 301 183.201C301.167 182.143 302.5 180.026 306.5 180.026H322.5C324.333 180.084 328 180.801 328 183.201C328 186.201 318.5 317.701 183.5 334.701C182 334.868 179 334.302 179 330.701Z" fill="#343434"/>
<path fill-rule="evenodd" clip-rule="evenodd" d="M81 148.701C81 146.035 82.6 140.701 89 140.701H239C241.667 140.701 247 142.301 247 148.701V189.201C246.667 218.701 229.5 277.701 163.5 277.701C97.5 277.701 81 218.701 81 189.201V148.701ZM139.5 195.701C139.5 176.101 155.5 171.535 163.5 171.701C177 171.701 189 180.701 189 195.701C189 207.701 180.667 214.035 176.5 215.701V245.701C176.5 248.501 174.167 249.201 173 249.201H153.5C150.7 249.201 150 246.868 150 245.701V215.701C141.2 209.301 139.333 199.701 139.5 195.701Z" fill="#343434"/>
<path d="M91 127.201H117C118.833 112.035 131 81.7012 165 81.7012C199 81.7012 209.5 112.035 210.5 127.201H237C236.333 103.701 221 56.7012 165 56.7012C109 56.7012 92.3333 103.701 91 127.201Z" fill="#343434"/>
<path d="M149 4.02548V23.0255C149 24.5255 148.1 27.5255 144.5 27.5255C140 27.5255 47.5 36.0258 27 151.526C26.8333 152.584 25.5 154.701 21.5 154.701H5.5C3.66667 154.643 0 153.926 0 151.526C0 148.526 9.5 17.0256 144.5 0.0256305C146 -0.141133 149 0.425365 149 4.02548Z" fill="#343434"/>
<path d="M149 330.701V311.701C149 310.201 148.1 307.201 144.5 307.201C140 307.201 47.5 298.701 27 183.201C26.8334 182.143 25.5 180.026 21.5 180.026H5.50005C3.66672 180.084 4.91142e-05 180.801 4.91142e-05 183.201C4.91142e-05 186.201 9.50005 317.701 144.5 334.701C146 334.868 149 334.302 149 330.701Z" fill="#343434"/>
</svg>
